<?xml version="1.0" encoding="UTF-8" standalone="no"?><!DOCTYPE svg PUBLIC "-//W3C//DTD SVG 1.1//EN" "http://www.w3.org/Graphics/SVG/1.1/DTD/svg11.dtd"><svg width="100%" height="100%" viewBox="0 0 1988 2212" version="1.1" xmlns="http://www.w3.org/2000/svg" xmlns:xlink="http://www.w3.org/1999/xlink" xml:space="preserve" xmlns:serif="http://www.serif.com/" style="fill-rule:evenodd;clip-rule:evenodd;stroke-linecap:round;stroke-miterlimit:10;"><g id="Snowflake"><g><path d="M993.872,1105.52l-0,833.334" style="fill:none;fill-rule:nonzero;stroke:#2da7c7;stroke-width:54.17px;"/><path d="M807.62,1476.42l186.252,-186.252l186.252,186.252" style="fill:none;fill-rule:nonzero;stroke:#2da7c7;stroke-width:54.17px;stroke-linecap:square;"/><path d="M752.928,1781.55l240.944,-240.944l240.944,240.944" style="fill:none;fill-rule:nonzero;stroke:#2da7c7;stroke-width:54.17px;"/></g><g><path d="M993.872,1105.52l-721.688,416.667" style="fill:none;fill-rule:nonzero;stroke:#2da7c7;stroke-width:54.17px;"/><path d="M579.534,1129.67l254.425,68.173l-68.173,254.425" style="fill:none;fill-rule:nonzero;stroke:#2da7c7;stroke-width:54.17px;stroke-linecap:square;"/><path d="M287.943,1234.87l329.135,88.191l-88.191,329.135" style="fill:none;fill-rule:nonzero;stroke:#2da7c7;stroke-width:54.17px;"/></g><g><path d="M993.872,1105.52l-721.688,-416.666" style="fill:none;fill-rule:nonzero;stroke:#2da7c7;stroke-width:54.17px;"/><path d="M765.786,758.767l68.173,254.425l-254.425,68.173" style="fill:none;fill-rule:nonzero;stroke:#2da7c7;stroke-width:54.17px;stroke-linecap:square;"/><path d="M528.887,558.841l88.191,329.135l-329.135,88.191" style="fill:none;fill-rule:nonzero;stroke:#2da7c7;stroke-width:54.17px;"/></g><g><path d="M993.872,1105.52l-0,-833.333" style="fill:none;fill-rule:nonzero;stroke:#2da7c7;stroke-width:54.17px;"/><path d="M1180.12,734.614l-186.252,186.252l-186.252,-186.252" style="fill:none;fill-rule:nonzero;stroke:#2da7c7;stroke-width:54.17px;stroke-linecap:square;"/><path d="M1234.82,429.49l-240.944,240.944l-240.944,-240.944" style="fill:none;fill-rule:nonzero;stroke:#2da7c7;stroke-width:54.17px;"/></g><g><path d="M993.872,1105.52l721.688,-416.666" style="fill:none;fill-rule:nonzero;stroke:#2da7c7;stroke-width:54.17px;"/><path d="M1408.21,1081.37l-254.425,-68.173l68.173,-254.425" style="fill:none;fill-rule:nonzero;stroke:#2da7c7;stroke-width:54.17px;stroke-linecap:square;"/><path d="M1699.8,976.167l-329.135,-88.191l88.191,-329.135" style="fill:none;fill-rule:nonzero;stroke:#2da7c7;stroke-width:54.17px;"/></g><g><path d="M993.872,1105.52l721.688,416.667" style="fill:none;fill-rule:nonzero;stroke:#2da7c7;stroke-width:54.17px;"/><path d="M1221.96,1452.27l-68.173,-254.425l254.425,-68.173" style="fill:none;fill-rule:nonzero;stroke:#2da7c7;stroke-width:54.17px;stroke-linecap:square;"/><path d="M1458.86,1652.19l-88.191,-329.135l329.135,-88.191" style="fill:none;fill-rule:nonzero;stroke:#2da7c7;stroke-width:54.17px;"/></g></g></svg>