<?xml version="1.0" encoding="UTF-8" standalone="no"?><!DOCTYPE svg PUBLIC "-//W3C//DTD SVG 1.1//EN" "http://www.w3.org/Graphics/SVG/1.1/DTD/svg11.dtd"><svg width="100%" height="100%" viewBox="0 0 8992 2212" version="1.1" xmlns="http://www.w3.org/2000/svg" xmlns:xlink="http://www.w3.org/1999/xlink" xml:space="preserve" xmlns:serif="http://www.serif.com/" style="fill-rule:evenodd;clip-rule:evenodd;stroke-linecap:round;stroke-miterlimit:10;"><g id="Snowflake"><g><path d="M7997.78,1105.52l0,833.334" style="fill:none;fill-rule:nonzero;stroke:#2da7c7;stroke-width:54.17px;"/><path d="M7811.52,1476.42l186.252,-186.252l186.252,186.252" style="fill:none;fill-rule:nonzero;stroke:#2da7c7;stroke-width:54.17px;stroke-linecap:square;"/><path d="M7756.83,1781.55l240.943,-240.944l240.944,240.944" style="fill:none;fill-rule:nonzero;stroke:#2da7c7;stroke-width:54.17px;"/></g><g><path d="M7997.78,1105.52l-721.688,416.667" style="fill:none;fill-rule:nonzero;stroke:#2da7c7;stroke-width:54.17px;"/><path d="M7583.44,1129.67l254.425,68.173l-68.173,254.425" style="fill:none;fill-rule:nonzero;stroke:#2da7c7;stroke-width:54.17px;stroke-linecap:square;"/><path d="M7291.85,1234.87l329.135,88.191l-88.192,329.135" style="fill:none;fill-rule:nonzero;stroke:#2da7c7;stroke-width:54.17px;"/></g><g><path d="M7997.78,1105.52l-721.688,-416.666" style="fill:none;fill-rule:nonzero;stroke:#2da7c7;stroke-width:54.17px;"/><path d="M7769.69,758.767l68.173,254.425l-254.425,68.173" style="fill:none;fill-rule:nonzero;stroke:#2da7c7;stroke-width:54.17px;stroke-linecap:square;"/><path d="M7532.79,558.841l88.192,329.135l-329.135,88.191" style="fill:none;fill-rule:nonzero;stroke:#2da7c7;stroke-width:54.17px;"/></g><g><path d="M7997.78,1105.52l0,-833.333" style="fill:none;fill-rule:nonzero;stroke:#2da7c7;stroke-width:54.17px;"/><path d="M8184.03,734.614l-186.252,186.252l-186.252,-186.252" style="fill:none;fill-rule:nonzero;stroke:#2da7c7;stroke-width:54.17px;stroke-linecap:square;"/><path d="M8238.72,429.49l-240.944,240.944l-240.943,-240.944" style="fill:none;fill-rule:nonzero;stroke:#2da7c7;stroke-width:54.17px;"/></g><g><path d="M7997.78,1105.52l721.688,-416.666" style="fill:none;fill-rule:nonzero;stroke:#2da7c7;stroke-width:54.17px;"/><path d="M8412.11,1081.37l-254.425,-68.173l68.173,-254.425" style="fill:none;fill-rule:nonzero;stroke:#2da7c7;stroke-width:54.17px;stroke-linecap:square;"/><path d="M8703.7,976.167l-329.135,-88.191l88.191,-329.135" style="fill:none;fill-rule:nonzero;stroke:#2da7c7;stroke-width:54.17px;"/></g><g><path d="M7997.78,1105.52l721.688,416.667" style="fill:none;fill-rule:nonzero;stroke:#2da7c7;stroke-width:54.17px;"/><path d="M8225.86,1452.27l-68.173,-254.425l254.425,-68.173" style="fill:none;fill-rule:nonzero;stroke:#2da7c7;stroke-width:54.17px;stroke-linecap:square;"/><path d="M8462.76,1652.19l-88.191,-329.135l329.135,-88.191" style="fill:none;fill-rule:nonzero;stroke:#2da7c7;stroke-width:54.17px;"/></g></g><path d="M504.66,1821.46l-127.976,0l-376.684,-1431.88l108.659,-0l330.806,1267.69l347.709,-1267.69l147.293,-0l350.123,1267.69l330.806,-1267.69l108.659,-0l-376.684,1431.88l-127.976,0l-357.367,-1294.25l-357.368,1294.25Z" style="fill:#103141;fill-rule:nonzero;"/><rect x="1909.98" y="389.576" width="96.586" height="1431.88" style="fill:#103141;fill-rule:nonzero;"/><path d="M2412.23,1821.46l-96.586,0l-0,-1431.88l132.805,-0l864.443,1313.57l-0,-1313.57l96.585,-0l0,1431.88l-132.805,0l-864.442,-1294.25l-0,1294.25Z" style="fill:#103141;fill-rule:nonzero;"/><path d="M4160.43,1821.46l-96.585,0l-0,-1337.71l-490.173,-0l0,-94.171l1081.76,-0l0,94.171l-495.002,-0l0,1337.71Z" style="fill:#103141;fill-rule:nonzero;"/><path d="M5754.1,1821.46l-934.467,0l0,-1431.88l934.467,-0l0,94.171l-837.881,-0l-0,550.538l765.442,0l-0,89.342l-765.442,0l-0,606.076l837.881,-0l0,91.756Z" style="fill:#103141;fill-rule:nonzero;"/><path d="M6031.78,1821.46l-96.586,0l0,-1431.88l683.344,-0c98.196,-0 181.904,37.024 251.123,111.073c69.22,72.44 103.83,160.977 103.83,265.611c-0,91.757 -20.927,171.44 -62.781,239.05c-43.463,67.61 -97.39,107.049 -161.781,118.317c59.561,16.098 107.854,66.805 144.879,152.123c37.024,85.317 55.537,188.342 55.537,309.074c-0,67.61 1.609,118.318 4.829,152.123c3.219,40.244 9.658,68.415 19.317,84.512l-96.586,0c-16.097,-19.317 -26.561,-54.732 -31.39,-106.244l-7.244,-205.245c-0,-96.586 -23.342,-179.488 -70.025,-248.708c-45.073,-67.61 -100.61,-101.415 -166.61,-101.415l-569.856,-0l0,661.612Zm0,-750.954l569.856,0c75.659,0 140.854,-28.976 195.586,-86.927c53.122,-56.342 79.683,-125.561 79.683,-207.659c0,-80.488 -26.561,-149.708 -79.683,-207.66c-54.732,-56.341 -119.927,-84.512 -195.586,-84.512l-569.856,-0l0,586.758Z" style="fill:#103141;fill-rule:nonzero;"/></svg>